<mxfile host="app.diagrams.net" modified="2023-09-20T18:02:46.802Z" agent="Mozilla/5.0 (Windows NT 10.0; Win64; x64) AppleWebKit/537.36 (KHTML, like Gecko) Chrome/116.0.0.0 Safari/537.36" version="21.7.2" etag="CPqF54Hz_GRrhC1c7of9" type="github">
  <diagram name="PÃ¡gina-1" id="n_1JwNyh_ADlnmDTyumZ">
    <mxGraphModel>
      <root>
        <mxCell id="0" />
        <mxCell id="1" parent="0" />
      </root>
    </mxGraphModel>
  </diagram>
</mxfile>
